<svg width="24" height="26" viewBox="0 0 24 26" fill="none" xmlns="http://www.w3.org/2000/svg">
<path d="M7.63385 25H3.34814C2.60528 24.8857 1.11957 24.3143 1.11957 22.9429C1.11957 21.5714 1.11957 9.22857 1.11957 3.22857C0.833851 2.48571 0.879566 1 3.34814 1C5.81671 1 15.2338 1 19.6338 1C20.3767 1 21.8624 1.44571 21.8624 3.22857C21.8624 5.01143 21.8624 8.54286 21.8624 10.0857" stroke="#EEE3E1" stroke-width="2"/>
<path d="M5.74805 5.62854H17.0623M5.74805 10.0857H17.0623M5.74805 14.5428H11.748" stroke="#EEE3E1" stroke-width="2"/>
<path d="M17.4052 15.9143C17.8783 15.4413 18.2435 15.076 18.4338 14.8857C19.4624 13.8571 20.4909 13.5143 21.6909 14.3714C22.6509 15.0571 22.3195 16.6 22.0338 17.2857L20.4909 18.8286M17.4052 15.9143C15.8331 17.4864 13.0701 20.2494 11.5767 21.7429V24.8286H14.4909L20.4909 18.8286M17.4052 15.9143L20.4909 18.8286" stroke="#EEE3E1" stroke-width="2"/>
</svg>
