<?xml version="1.0" standalone="no"?>
<!DOCTYPE svg PUBLIC "-//W3C//DTD SVG 20010904//EN" "http://www.w3.org/TR/2001/REC-SVG-20010904/DTD/svg10.dtd">
<svg version="1.0" xmlns="http://www.w3.org/2000/svg" width="512.000000pt" height="512.000000pt" viewBox="0 0 512.000000 512.000000" preserveAspectRatio="xMidYMid meet">
<metadata>
Created by potrace 1.16, written by Peter Selinger 2001-2019
</metadata>
<g transform="translate(0.000000,512.000000) scale(0.100000,-0.100000)" fill="#FFFFFF" stroke="none">
<path d="M275 5096 c-23 -14 -51 -43 -65 -68 l-25 -43 0 -1203 0 -1204 28 -24 c34 -29 66 -31 101 -3 l26 20 0 810 0 809 1920 0 1920 0 0 -213 c0 -117 -4 -217 -8 -223 -23 -25 -332 -695 -332 -718 0 -55 70 -93 121 -66 11 6 52 79 96 170 42 88 79 160 84 160 9 0 432 -200 441 -209 12 -11 -808 -1727 -824 -1723 -34 9 -438 206 -438 214 0 5 119 260 265 567 171 360 265 568 265 588 0 57 -77 93 -125 59 -11 -7 -60 -100 -109 -205 l-90 -191 -1118 0 -1119 0 -24 -25 c-30 -29 -32 -74 -6 -106 l19 -24 1084 -5 1085 -5 -88 -182 -88 -183 -1251 -2 -1252 -3 -19 -24 c-25 -31 -25 -85 1 -111 20 -20 33 -20 1231 -20 l1210 0 -7 -22 c-3 -11 -19 -49 -35 -82 -21 -44 -29 -76 -29 -116 0 -30 -3 -79 -6 -108 l-7 -52 -1158 0 c-1146 0 -1159 0 -1179 -20 -31 -31 -27 -93 6 -119 27 -21 28 -21 1175 -21 632 0 1149 -4 1149 -8 0 -4 -7 -110 -15 -234 -18 -264 -15 -287 52 -314 69 -29 83 -19 419 293 170 157 314 293 320 302 6 9 66 133 133 276 68 143 134 280 147 305 l23 45 1 -822 c0 -810 0 -823 -20 -843 -20 -20 -33 -20 -1900 -20 -1867 0 -1880 0 -1900 20 -20 20 -20 33 -20 1078 0 1055 0 1059 -20 1077 -29 26 -85 25 -113 -3 l-22 -23 0 -1082 0 -1082 27 -45 c15 -27 42 -54 66 -68 l40 -22 1942 0 1943 0 41 24 c24 14 52 42 66 68 l25 43 5 1030 5 1030 290 605 290 605 0 90 c0 160 -47 218 -264 324 l-136 66 -90 0 -90 0 -5 550 -5 550 -27 45 c-15 27 -42 54 -66 68 l-40 22 -1943 0 -1944 0 -40 -24z m3892 -139 c4 -5 9 -143 11 -308 l3 -299 -1921 0 -1920 0 0 283 c0 155 3 292 6 304 3 12 13 24 23 26 30 9 3789 2 3798 -6z m433 -1290 c192 -95 205 -128 118 -314 -29 -62 -55 -113 -59 -113 -10 0 -432 201 -443 210 -9 9 84 213 112 243 51 57 118 50 272 -26z m-1126 -2347 c102 -49 186 -91 186 -92 0 -2 -38 -38 -84 -81 l-84 -77 -115 54 -116 55 5 93 c5 92 11 138 18 138 2 0 87 -40 190 -90z"/>
<path d="M786 4699 c-35 -27 -36 -86 -3 -117 l23 -22 846 0 c466 0 854 3 863 6 8 4 23 20 31 36 20 38 4 90 -32 107 -18 8 -254 11 -863 11 -833 0 -838 0 -865 -21z"/>
<path d="M2882 4697 c-32 -34 -30 -89 4 -116 45 -35 95 -26 120 21 43 82 -61 162 -124 95z"/>
<path d="M3269 4701 c-18 -14 -24 -29 -24 -61 0 -32 6 -47 24 -61 53 -43 131 -7 131 61 0 68 -78 104 -131 61z"/>
<path d="M3673 4710 c-45 -18 -58 -95 -23 -130 31 -31 93 -27 119 6 34 43 21 102 -26 123 -28 13 -40 13 -70 1z"/>
<path d="M959 3671 l-29 -29 0 -320 c0 -307 1 -320 21 -345 31 -41 79 -50 240 -45 157 5 193 14 243 64 69 69 86 185 42 281 -14 28 -36 59 -50 68 -20 14 -24 21 -16 35 13 24 13 151 1 183 -16 40 -73 99 -116 118 -32 15 -66 19 -173 19 l-134 0 -29 -29z m283 -148 c23 -20 24 -80 1 -105 -13 -14 -31 -18 -85 -18 l-68 0 0 70 0 70 67 0 c48 0 72 -5 85 -17z m78 -303 c30 -30 27 -83 -6 -109 -23 -18 -41 -21 -125 -21 l-99 0 0 75 0 75 105 0 c92 0 108 -3 125 -20z"/>
<path d="M1681 3681 c-11 -11 -23 -35 -26 -53 -3 -18 -5 -171 -3 -340 3 -305 3 -308 26 -330 22 -23 27 -23 238 -23 l216 0 24 28 c29 34 31 66 3 101 l-20 26 -165 0 -164 0 0 285 c0 272 -1 286 -20 305 -26 26 -83 27 -109 1z"/>
<path d="M2470 3691 c-80 -25 -149 -92 -175 -172 -14 -40 -16 -83 -13 -222 4 -197 11 -220 90 -294 56 -51 104 -67 199 -67 125 1 214 56 261 162 17 38 19 63 16 230 -3 206 -9 228 -71 292 -53 54 -120 80 -207 79 -41 0 -86 -4 -100 -8z m186 -185 l34 -34 0 -155 c0 -141 -2 -157 -21 -180 -43 -56 -148 -57 -200 -1 -23 24 -24 33 -27 166 -4 152 3 185 46 218 18 14 40 20 79 20 49 0 59 -4 89 -34z"/>
<path d="M3105 3681 c-51 -23 -101 -79 -114 -128 -6 -21 -11 -132 -11 -246 0 -226 5 -255 58 -310 53 -56 75 -62 227 -62 131 0 144 2 190 26 30 15 62 42 79 67 26 37 30 52 34 131 9 177 -53 251 -211 251 -86 0 -111 -17 -111 -75 0 -49 25 -71 89 -78 30 -3 59 -8 65 -12 12 -7 13 -104 2 -122 -14 -22 -62 -33 -140 -33 -126 0 -122 -7 -122 224 0 174 2 195 18 209 15 14 42 17 155 17 146 0 178 8 196 47 17 37 13 62 -14 88 -24 25 -27 25 -187 25 -136 0 -170 -3 -203 -19z"/>
</g>
</svg>
